<svg width="247" height="19" viewBox="0 0 247 19" fill="none" xmlns="http://www.w3.org/2000/svg">
<path d="M100.578 10.4375L99.3594 11.75L99.3594 15L97.0156 15L97.0156 3.625L99.3594 3.625L99.3594 8.78125L100.391 7.36719L103.289 3.625L106.172 3.625L102.133 8.67969L106.289 15L103.5 15L100.578 10.4375ZM118.422 15L116.078 15L111.516 7.51563L111.516 15L109.172 15L109.172 3.625L111.516 3.625L116.086 11.125L116.086 3.625L118.422 3.625L118.422 15ZM131.812 9.57032C131.812 10.6901 131.615 11.6719 131.219 12.5156C130.823 13.3594 130.255 14.0104 129.516 14.4688C128.781 14.9271 127.937 15.1563 126.984 15.1563C126.042 15.1563 125.201 14.9297 124.461 14.4766C123.721 14.0234 123.148 13.3776 122.742 12.5391C122.336 11.6953 122.13 10.7266 122.125 9.63282L122.125 9.07032C122.125 7.95053 122.326 6.96615 122.727 6.11719C123.133 5.26303 123.703 4.60938 124.437 4.15625C125.177 3.69792 126.021 3.46876 126.969 3.46876C127.917 3.46876 128.758 3.69792 129.492 4.15626C130.232 4.60938 130.802 5.26303 131.203 6.11719C131.609 6.96615 131.812 7.94792 131.812 9.06251L131.812 9.57032ZM129.437 9.05469C129.437 7.86199 129.224 6.95573 128.797 6.33594C128.37 5.71615 127.76 5.40626 126.969 5.40626C126.182 5.40626 125.576 5.71355 125.148 6.32813C124.721 6.93751 124.505 7.83334 124.5 9.01563L124.5 9.57032C124.5 10.7318 124.714 11.6328 125.141 12.2734C125.568 12.9141 126.182 13.2344 126.984 13.2344C127.771 13.2344 128.375 12.9271 128.797 12.3125C129.219 11.6927 129.432 10.7917 129.437 9.60938L129.437 9.05469ZM144.375 11.7188L145.906 3.62501L148.242 3.62501L145.719 15L143.359 15L141.508 7.39063L139.656 15L137.297 15L134.773 3.62501L137.109 3.62501L138.648 11.7031L140.523 3.62501L142.508 3.62501L144.375 11.7188ZM163.922 12.6563L159.812 12.6563L159.031 15L156.539 15L160.773 3.62501L162.945 3.62501L167.203 15L164.711 15L163.922 12.6563ZM160.445 10.7578L163.289 10.7578L161.859 6.50001L160.445 10.7578ZM170.266 15L170.266 3.62501L174.25 3.62501C175.63 3.62501 176.677 3.89064 177.391 4.42189C178.104 4.94793 178.461 5.72137 178.461 6.7422C178.461 7.29949 178.318 7.79168 178.031 8.21876C177.745 8.64064 177.346 8.95054 176.836 9.14845C177.419 9.29429 177.878 9.58856 178.211 10.0313C178.549 10.474 178.719 11.0156 178.719 11.6563C178.719 12.75 178.37 13.5781 177.672 14.1406C176.974 14.7031 175.979 14.9896 174.687 15L170.266 15ZM172.609 10.0469L172.609 13.1172L174.617 13.1172C175.169 13.1172 175.599 12.987 175.906 12.7266C176.219 12.461 176.375 12.0964 176.375 11.6328C176.375 10.5912 175.836 10.0625 174.758 10.0469L172.609 10.0469ZM172.609 8.39064L174.344 8.39064C175.526 8.36981 176.117 7.89845 176.117 6.97658C176.117 6.46095 175.966 6.09116 175.664 5.8672C175.367 5.63803 174.896 5.52345 174.25 5.52345L172.609 5.52345L172.609 8.39064ZM191.828 9.57033C191.828 10.6901 191.63 11.6719 191.234 12.5156C190.839 13.3594 190.271 14.0104 189.531 14.4688C188.797 14.9271 187.953 15.1563 187 15.1563C186.057 15.1563 185.216 14.9297 184.477 14.4766C183.737 14.0235 183.164 13.3776 182.758 12.5391C182.352 11.6953 182.146 10.7266 182.141 9.63283L182.141 9.07033C182.141 7.95054 182.341 6.96616 182.742 6.1172C183.148 5.26304 183.719 4.60939 184.453 4.15627C185.193 3.69793 186.036 3.46877 186.984 3.46877C187.932 3.46877 188.773 3.69793 189.508 4.15627C190.247 4.60939 190.818 5.26304 191.219 6.1172C191.625 6.96616 191.828 7.94793 191.828 9.06252L191.828 9.57033ZM189.453 9.0547C189.453 7.862 189.24 6.95575 188.812 6.33595C188.385 5.71616 187.776 5.40627 186.984 5.40627C186.198 5.40627 185.591 5.71356 185.164 6.32814C184.737 6.93752 184.521 7.83335 184.516 9.01564L184.516 9.57033C184.516 10.7318 184.729 11.6328 185.156 12.2735C185.583 12.9141 186.198 13.2344 187 13.2344C187.786 13.2344 188.391 12.9271 188.812 12.3125C189.234 11.6927 189.448 10.7917 189.453 9.60939L189.453 9.0547ZM204.141 3.62502L204.141 11.1172C204.141 12.362 203.75 13.3464 202.969 14.0703C202.193 14.7943 201.13 15.1563 199.781 15.1563C198.453 15.1563 197.398 14.8047 196.617 14.1016C195.836 13.3985 195.437 12.4323 195.422 11.2031L195.422 3.62502L197.766 3.62502L197.766 11.1328C197.766 11.8776 197.943 12.4219 198.297 12.7656C198.656 13.1042 199.151 13.2735 199.781 13.2735C201.099 13.2735 201.768 12.5807 201.789 11.1953L201.789 3.62502L204.141 3.62502ZM216.625 5.52346L213.141 5.52346L213.141 15L210.797 15L210.797 5.52346L207.359 5.52346L207.359 3.62502L216.625 3.62502L216.625 5.52346ZM234.094 3.62502L234.094 11.1172C234.094 12.362 233.703 13.3464 232.922 14.0703C232.146 14.7943 231.083 15.1563 229.734 15.1563C228.406 15.1563 227.352 14.8047 226.57 14.1016C225.789 13.3985 225.391 12.4323 225.375 11.2031L225.375 3.62502L227.719 3.62502L227.719 11.1328C227.719 11.8776 227.896 12.4219 228.25 12.7656C228.609 13.1042 229.104 13.2735 229.734 13.2735C231.052 13.2735 231.721 12.5808 231.742 11.1953L231.742 3.62502L234.094 3.62502ZM243.914 12.0157C243.914 11.5729 243.758 11.2344 243.445 11C243.133 10.7604 242.57 10.5104 241.758 10.25C240.945 9.9844 240.302 9.72398 239.828 9.46878C238.536 8.77086 237.891 7.83075 237.891 6.64846C237.891 6.03388 238.062 5.487 238.406 5.00784C238.755 4.52346 239.253 4.14586 239.898 3.87503C240.549 3.60419 241.279 3.46878 242.086 3.46878C242.898 3.46878 243.622 3.61721 244.258 3.91409C244.893 4.20576 245.385 4.61982 245.734 5.15628C246.089 5.69273 246.266 6.30211 246.266 6.9844L243.922 6.9844C243.922 6.46357 243.758 6.05992 243.43 5.77346C243.102 5.4818 242.641 5.33596 242.047 5.33596C241.474 5.33596 241.029 5.45836 240.711 5.70315C240.393 5.94273 240.234 6.26044 240.234 6.65628C240.234 7.02607 240.419 7.33596 240.789 7.58596C241.164 7.83596 241.714 8.07034 242.437 8.28909C243.771 8.69013 244.742 9.18753 245.352 9.78128C245.961 10.375 246.266 11.1146 246.266 12C246.266 12.9844 245.893 13.7578 245.148 14.3203C244.404 14.8776 243.401 15.1563 242.141 15.1563C241.266 15.1563 240.469 14.9974 239.75 14.6797C239.031 14.3568 238.482 13.9167 238.102 13.3594C237.727 12.8021 237.539 12.1563 237.539 11.4219L239.891 11.4219C239.891 12.6771 240.641 13.3047 242.141 13.3047C242.698 13.3047 243.133 13.1927 243.445 12.9688C243.758 12.7396 243.914 12.4219 243.914 12.0157Z" fill="#1D2130"/>
<path d="M0 9.5H72" stroke="#1D2130" stroke-width="2"/>
</svg>
