<svg width="1280" height="20" viewBox="0 0 1280 20" fill="none" xmlns="http://www.w3.org/2000/svg">
<line x1="1280" y1="10.3408" x2="186" y2="10.3408" stroke="#E5E5E5"/>
<path d="M10.2344 9.9502C10.2344 11.0648 10.0417 12.0439 9.65625 12.8877C9.27083 13.7262 8.71875 14.3721 8 14.8252C7.28646 15.2731 6.46354 15.4971 5.53125 15.4971C4.60938 15.4971 3.78646 15.2731 3.0625 14.8252C2.34375 14.3721 1.78646 13.7288 1.39063 12.8955C1 12.0622 0.802083 11.1012 0.796875 10.0127L0.796875 9.37207C0.796875 8.2627 0.992188 7.28353 1.38281 6.43457C1.77865 5.58561 2.33333 4.93717 3.04688 4.48926C3.76563 4.03613 4.58854 3.80957 5.51563 3.80957C6.44271 3.80957 7.26302 4.03353 7.97656 4.48145C8.69531 4.92415 9.25 5.56478 9.64063 6.40332C10.0313 7.23665 10.2292 8.20801 10.2344 9.31738V9.9502ZM8.25781 9.35645C8.25781 8.09603 8.01823 7.12988 7.53906 6.45801C7.0651 5.78613 6.39063 5.4502 5.51563 5.4502C4.66146 5.4502 3.99219 5.78613 3.50781 6.45801C3.02865 7.12467 2.78385 8.06999 2.77344 9.29395V9.9502C2.77344 11.2002 3.01563 12.1663 3.5 12.8486C3.98958 13.5309 4.66667 13.8721 5.53125 13.8721C6.40625 13.8721 7.07813 13.5387 7.54688 12.8721C8.02083 12.2054 8.25781 11.2314 8.25781 9.9502V9.35645ZM22.5234 3.96582L22.5234 11.5674C22.5234 12.7757 22.1354 13.734 21.3594 14.4424C20.5885 15.1455 19.5599 15.4971 18.2734 15.4971C16.9714 15.4971 15.9375 15.1507 15.1719 14.458C14.4063 13.7601 14.0234 12.7939 14.0234 11.5596L14.0234 3.96582L15.9922 3.96582L15.9922 11.5752C15.9922 12.3356 16.1849 12.9163 16.5703 13.3174C16.9557 13.7184 17.5234 13.9189 18.2734 13.9189C19.7943 13.9189 20.5547 13.1169 20.5547 11.5127L20.5547 3.96582L22.5234 3.96582ZM30.8203 10.958H28.6172L28.6172 15.3408L26.6406 15.3408L26.6406 3.96582L30.6406 3.96582C31.9531 3.96582 32.9661 4.26009 33.6797 4.84863C34.3932 5.43717 34.75 6.28874 34.75 7.40332C34.75 8.16374 34.5651 8.80176 34.1953 9.31738C33.8307 9.8278 33.3203 10.221 32.6641 10.4971L35.2188 15.2393V15.3408H33.1016L30.8203 10.958ZM28.6172 9.37207H30.6484C31.3151 9.37207 31.8359 9.2054 32.2109 8.87207C32.5859 8.53353 32.7734 8.07259 32.7734 7.48926C32.7734 6.87988 32.599 6.40853 32.25 6.0752C31.9062 5.74186 31.3906 5.56999 30.7031 5.55957L28.6172 5.55957V9.37207ZM50.5547 12.4111C50.5547 11.9111 50.3776 11.5257 50.0234 11.2549C49.6745 10.984 49.0417 10.7106 48.125 10.4346C47.2083 10.1585 46.4792 9.85124 45.9375 9.5127C44.901 8.86165 44.3828 8.0127 44.3828 6.96582C44.3828 6.04915 44.7552 5.29395 45.5 4.7002C46.25 4.10645 47.2214 3.80957 48.4141 3.80957C49.2057 3.80957 49.9115 3.9554 50.5312 4.24707C51.151 4.53874 51.638 4.9554 51.9922 5.49707C52.3464 6.03353 52.5234 6.62988 52.5234 7.28613L50.5547 7.28613C50.5547 6.69238 50.3672 6.22884 49.9922 5.89551C49.6224 5.55697 49.0911 5.3877 48.3984 5.3877C47.7526 5.3877 47.25 5.52572 46.8906 5.80176C46.5365 6.0778 46.3594 6.46322 46.3594 6.95801C46.3594 7.37467 46.5521 7.72363 46.9375 8.00488C47.3229 8.28092 47.9583 8.55176 48.8438 8.81738C49.7292 9.0778 50.4401 9.37728 50.9766 9.71582C51.513 10.0492 51.9062 10.4346 52.1562 10.8721C52.4062 11.3044 52.5312 11.8122 52.5312 12.3955C52.5312 13.3434 52.1667 14.0986 51.4375 14.6611C50.7135 15.2184 49.7292 15.4971 48.4844 15.4971C47.6615 15.4971 46.9036 15.346 46.2109 15.0439C45.5234 14.7367 44.987 14.3148 44.6016 13.7783C44.2214 13.2419 44.0312 12.6169 44.0312 11.9033H46.0078C46.0078 12.5492 46.2214 13.0492 46.6484 13.4033C47.0755 13.7575 47.6875 13.9346 48.4844 13.9346C49.1719 13.9346 49.6875 13.7965 50.0312 13.5205C50.3802 13.2393 50.5547 12.8695 50.5547 12.4111ZM64.5859 3.96582V11.5674C64.5859 12.7757 64.1979 13.734 63.4219 14.4424C62.651 15.1455 61.6224 15.4971 60.3359 15.4971C59.0339 15.4971 58 15.1507 57.2344 14.458C56.4688 13.7601 56.0859 12.7939 56.0859 11.5596V3.96582L58.0547 3.96582V11.5752C58.0547 12.3356 58.2474 12.9163 58.6328 13.3174C59.0182 13.7184 59.5859 13.9189 60.3359 13.9189C61.8568 13.9189 62.6172 13.1169 62.6172 11.5127V3.96582H64.5859ZM70.6797 11.1143V15.3408H68.7031V3.96582L73.0547 3.96582C74.3255 3.96582 75.3333 4.29655 76.0781 4.95801C76.8281 5.61947 77.2031 6.49447 77.2031 7.58301C77.2031 8.69759 76.8359 9.56478 76.1016 10.1846C75.3724 10.8044 74.349 11.1143 73.0312 11.1143L70.6797 11.1143ZM70.6797 9.52832L73.0547 9.52832C73.7578 9.52832 74.2943 9.36426 74.6641 9.03613C75.0339 8.7028 75.2188 8.22363 75.2188 7.59863C75.2188 6.98405 75.0312 6.49447 74.6562 6.12988C74.2812 5.76009 73.7656 5.56999 73.1094 5.55957H70.6797V9.52832ZM82.9141 11.1143V15.3408L80.9375 15.3408V3.96582L85.2891 3.96582C86.5599 3.96582 87.5677 4.29655 88.3125 4.95801C89.0625 5.61947 89.4375 6.49447 89.4375 7.58301C89.4375 8.69759 89.0703 9.56478 88.3359 10.1846C87.6068 10.8044 86.5833 11.1143 85.2656 11.1143H82.9141ZM82.9141 9.52832H85.2891C85.9922 9.52832 86.5286 9.36426 86.8984 9.03613C87.2682 8.7028 87.4531 8.22363 87.4531 7.59863C87.4531 6.98405 87.2656 6.49447 86.8906 6.12988C86.5156 5.76009 86 5.56999 85.3438 5.55957H82.9141V9.52832ZM102.25 9.9502C102.25 11.0648 102.057 12.0439 101.672 12.8877C101.286 13.7262 100.734 14.3721 100.016 14.8252C99.3021 15.2731 98.4792 15.4971 97.5469 15.4971C96.625 15.4971 95.8021 15.2731 95.0781 14.8252C94.3594 14.3721 93.8021 13.7288 93.4062 12.8955C93.0156 12.0622 92.8177 11.1012 92.8125 10.0127V9.37207C92.8125 8.2627 93.0078 7.28353 93.3984 6.43457C93.7943 5.58561 94.349 4.93717 95.0625 4.48926C95.7812 4.03613 96.6042 3.80957 97.5312 3.80957C98.4583 3.80957 99.2786 4.03353 99.9922 4.48145C100.711 4.92415 101.266 5.56478 101.656 6.40332C102.047 7.23665 102.245 8.20801 102.25 9.31738V9.9502ZM100.273 9.35645C100.273 8.09603 100.034 7.12988 99.5547 6.45801C99.0807 5.78613 98.4062 5.4502 97.5312 5.4502C96.6771 5.4502 96.0078 5.78613 95.5234 6.45801C95.0443 7.12467 94.7995 8.06999 94.7891 9.29395V9.9502C94.7891 11.2002 95.0312 12.1663 95.5156 12.8486C96.0052 13.5309 96.6823 13.8721 97.5469 13.8721C98.4219 13.8721 99.0938 13.5387 99.5625 12.8721C100.036 12.2054 100.273 11.2314 100.273 9.9502V9.35645ZM110.398 10.958H108.195V15.3408H106.219V3.96582L110.219 3.96582C111.531 3.96582 112.544 4.26009 113.258 4.84863C113.971 5.43717 114.328 6.28874 114.328 7.40332C114.328 8.16374 114.143 8.80176 113.773 9.31738C113.409 9.8278 112.898 10.221 112.242 10.4971L114.797 15.2393V15.3408H112.68L110.398 10.958ZM108.195 9.37207H110.227C110.893 9.37207 111.414 9.2054 111.789 8.87207C112.164 8.53353 112.352 8.07259 112.352 7.48926C112.352 6.87988 112.177 6.40853 111.828 6.0752C111.484 5.74186 110.969 5.56999 110.281 5.55957H108.195V9.37207ZM126.031 5.55957L122.484 5.55957V15.3408H120.523V5.55957L117.008 5.55957V3.96582L126.031 3.96582V5.55957ZM136.18 10.2627H131.508V13.7627H136.969V15.3408H129.531V3.96582L136.914 3.96582V5.55957L131.508 5.55957V8.7002H136.18V10.2627ZM144.758 10.958H142.555V15.3408H140.578V3.96582L144.578 3.96582C145.891 3.96582 146.904 4.26009 147.617 4.84863C148.331 5.43717 148.688 6.28874 148.688 7.40332C148.688 8.16374 148.503 8.80176 148.133 9.31738C147.768 9.8278 147.258 10.221 146.602 10.4971L149.156 15.2393V15.3408L147.039 15.3408L144.758 10.958ZM142.555 9.37207H144.586C145.253 9.37207 145.773 9.2054 146.148 8.87207C146.523 8.53353 146.711 8.07259 146.711 7.48926C146.711 6.87988 146.536 6.40853 146.188 6.0752C145.844 5.74186 145.328 5.56999 144.641 5.55957H142.555V9.37207ZM158.508 12.4111C158.508 11.9111 158.331 11.5257 157.977 11.2549C157.628 10.984 156.995 10.7106 156.078 10.4346C155.161 10.1585 154.432 9.85124 153.891 9.5127C152.854 8.86165 152.336 8.0127 152.336 6.96582C152.336 6.04915 152.708 5.29395 153.453 4.7002C154.203 4.10645 155.174 3.80957 156.367 3.80957C157.159 3.80957 157.865 3.9554 158.484 4.24707C159.104 4.53874 159.591 4.9554 159.945 5.49707C160.299 6.03353 160.477 6.62988 160.477 7.28613H158.508C158.508 6.69238 158.32 6.22884 157.945 5.89551C157.576 5.55697 157.044 5.3877 156.352 5.3877C155.706 5.3877 155.203 5.52572 154.844 5.80176C154.49 6.0778 154.312 6.46322 154.312 6.95801C154.312 7.37467 154.505 7.72363 154.891 8.00488C155.276 8.28092 155.911 8.55176 156.797 8.81738C157.682 9.0778 158.393 9.37728 158.93 9.71582C159.466 10.0492 159.859 10.4346 160.109 10.8721C160.359 11.3044 160.484 11.8122 160.484 12.3955C160.484 13.3434 160.12 14.0986 159.391 14.6611C158.667 15.2184 157.682 15.4971 156.438 15.4971C155.615 15.4971 154.857 15.346 154.164 15.0439C153.477 14.7367 152.94 14.3148 152.555 13.7783C152.174 13.2419 151.984 12.6169 151.984 11.9033H153.961C153.961 12.5492 154.174 13.0492 154.602 13.4033C155.029 13.7575 155.641 13.9346 156.438 13.9346C157.125 13.9346 157.641 13.7965 157.984 13.5205C158.333 13.2393 158.508 12.8695 158.508 12.4111Z" fill="#1D2130"/>
</svg>
