<svg width="212" height="20" viewBox="0 0 212 20" fill="none" xmlns="http://www.w3.org/2000/svg">
<path d="M105.875 12.0781L107.406 3.98438L109.742 3.98438L107.219 15.3594L104.859 15.3594L103.008 7.75L101.156 15.3594L98.7969 15.3594L96.2734 3.98438L98.6094 3.98438L100.148 12.0625L102.023 3.98438L104.008 3.98438L105.875 12.0781ZM122.273 15.3594L119.93 15.3594L119.93 10.4844L115.359 10.4844L115.359 15.3594L113.016 15.3594L113.016 3.98438L115.359 3.98438L115.359 8.59375L119.93 8.59375L119.93 3.98438L122.273 3.98438L122.273 15.3594ZM132.891 13.0156L128.781 13.0156L128 15.3594L125.508 15.3594L129.742 3.98438L131.914 3.98438L136.172 15.3594L133.68 15.3594L132.891 13.0156ZM129.414 11.1172L132.258 11.1172L130.828 6.85938L129.414 11.1172ZM146.859 5.88282L143.375 5.88282L143.375 15.3594L141.031 15.3594L141.031 5.88282L137.594 5.88282L137.594 3.98438L146.859 3.98438L146.859 5.88282ZM164.578 12.0781L166.109 3.98439L168.445 3.98439L165.922 15.3594L163.562 15.3594L161.711 7.75001L159.859 15.3594L157.5 15.3594L154.977 3.98439L157.312 3.98439L158.852 12.0625L160.727 3.98439L162.711 3.98439L164.578 12.0781ZM178.562 10.4297L174.062 10.4297L174.062 13.4766L179.344 13.4766L179.344 15.3594L171.719 15.3594L171.719 3.98439L179.328 3.98439L179.328 5.88283L174.062 5.88283L174.062 8.59376L178.562 8.59376L178.562 10.4297ZM188.703 15.3594L188.703 3.98439L192.203 3.98439C193.203 3.98439 194.096 4.21095 194.883 4.66408C195.674 5.112 196.292 5.75262 196.734 6.58596C197.177 7.41408 197.398 8.35679 197.398 9.41408L197.398 9.93752C197.398 10.9948 197.18 11.9349 196.742 12.7578C196.31 13.5807 195.698 14.2188 194.906 14.6719C194.115 15.125 193.221 15.3542 192.227 15.3594L188.703 15.3594ZM191.047 5.88283L191.047 13.4766L192.18 13.4766C193.096 13.4766 193.797 13.1771 194.281 12.5781C194.766 11.9792 195.013 11.1224 195.023 10.0078L195.023 9.40627C195.023 8.25002 194.784 7.37502 194.305 6.78127C193.826 6.18231 193.125 5.88283 192.203 5.88283L191.047 5.88283ZM210.453 9.92971C210.453 11.0495 210.255 12.0313 209.859 12.875C209.464 13.7188 208.896 14.3698 208.156 14.8281C207.422 15.2865 206.578 15.5156 205.625 15.5156C204.682 15.5156 203.841 15.2891 203.102 14.836C202.362 14.3828 201.789 13.737 201.383 12.8985C200.977 12.0547 200.771 11.086 200.766 9.99221L200.766 9.42971C200.766 8.30991 200.966 7.32554 201.367 6.47658C201.773 5.62241 202.344 4.96877 203.078 4.51564C203.818 4.05731 204.661 3.82814 205.609 3.82814C206.557 3.82814 207.398 4.05731 208.133 4.51564C208.872 4.96877 209.443 5.62242 209.844 6.47658C210.25 7.32554 210.453 8.30731 210.453 9.4219L210.453 9.92971ZM208.078 9.41408C208.078 8.22137 207.865 7.31512 207.437 6.69533C207.01 6.07554 206.401 5.76564 205.609 5.76564C204.823 5.76564 204.216 6.07294 203.789 6.68752C203.362 7.29689 203.146 8.19273 203.141 9.37502L203.141 9.92971C203.141 11.0912 203.354 11.9922 203.781 12.6328C204.208 13.2735 204.823 13.5938 205.625 13.5938C206.411 13.5938 207.016 13.2865 207.437 12.6719C207.859 12.0521 208.073 11.1511 208.078 9.96877L208.078 9.41408Z" fill="#1D2130"/>
<path d="M0 9.85938H72" stroke="#1D2130" stroke-width="2"/>
</svg>
